# xmcd CD database file
#
# Track frame offsets:
#	150
#	30517
#	50508
#	75471
#	100131
#	117982
#	148191
#	162114
#	184725
#	197696
#	207774
#	231151
#
# Disc length: 3529 seconds
#
# Revision: 0
# Processed by: cddbd v1.5.2PL0 Copyright (c) Steve Scherf et al.
# Submitted via: CDex 2.19
#
DISCID=9b0dc70c
DTITLE=Sons of Anarchy - Compilation - Songs of Anarchy: Vol. 4
DYEAR=2015
DGENRE=Compilation
TTITLE0=Bohemian Rhapsody [From Sons of Anarchy]
TTITLE1=Never My Love [From Sons of Anarchy]
TTITLE2=The Age of Aquarius - Let the Sun Shine In [From Sons of Anarchy]
TTITLE3=Greensleeves [From Sons of Anarchy]
TTITLE4=All Along the Watchtower [From Sons of Anarchy]
TTITLE5=Make It Rain [From Sons of Anarchy]
TTITLE6=Baby, Please Don't Go [From Sons of Anarchy]
TTITLE7=Blue Angel [From Sons of Anarchy]
TTITLE8=All Along the Watchtower [From Sons of Anarchy (Instrumental)]
TTITLE9=Can't Help Falling In Love [From Sons of Anarchy]
TTITLE10=Boots of Spanish Leather [From Sons of Anarchy]
TTITLE11=Come Join the Murder [From Sons of Anarchy]
EXTD=YEAR: 2015
EXTT0=
EXTT1=
EXTT2=
EXTT3=
EXTT4=
EXTT5=
EXTT6=
EXTT7=
EXTT8=
EXTT9=
EXTT10=
EXTT11=
PLAYORDER=
